<svg width="400" height="401" viewBox="0 0 400 401" fill="none" xmlns="http://www.w3.org/2000/svg">
<path d="M149.963 400.034C190.029 400.034 227.715 384.432 256.239 355.887L394.341 213.946C397.081 211.126 398.93 207.561 399.656 203.697C400.382 199.833 399.953 195.84 398.423 192.218C396.893 188.596 394.329 185.506 391.052 183.333C387.775 181.16 383.93 180.001 379.998 180H313.968L397.481 29.6973C399.572 25.8982 400.374 21.5228 399.765 17.2291C399.156 12.9353 397.169 8.95539 394.104 5.88775C391.038 2.82011 387.06 0.830611 382.767 0.218429C378.473 -0.393753 374.097 0.404479 370.297 2.49309L228.075 81.5052L239.597 23.9164C240.41 19.8411 239.933 15.6138 238.234 11.8217C236.534 8.02959 233.696 4.86098 230.112 2.75604C226.529 0.651096 222.38 -0.285673 218.24 0.0758613C214.1 0.437395 210.176 2.07928 207.012 4.77344L43.8667 143.935C-14.6222 202.424 -14.6222 297.598 43.8667 356.087C57.7671 370.064 74.3015 381.144 92.513 388.688C110.724 396.231 130.251 400.088 149.963 400.034ZM70.9909 173.299L189.049 72.6638L171.886 158.477L328.51 71.4637L262.5 190.282L262.48 190.302L245.998 220.006H332.631L227.755 327.803C206.972 348.586 179.348 360.028 149.963 360.028C120.579 360.028 92.9343 348.586 72.1511 327.803C29.2845 284.916 29.2845 215.106 70.9909 173.299Z" fill="white"/>
<path d="M149.963 320.021C165.893 320.08 181.365 314.692 193.812 304.751C206.259 294.81 214.935 280.913 218.4 265.365C221.865 249.816 219.912 233.55 212.863 219.265C205.815 204.979 194.095 193.531 179.648 186.821C179.748 187.881 179.968 188.921 179.968 190.001C179.968 197.959 176.807 205.591 171.18 211.218C165.553 216.845 157.921 220.006 149.963 220.006C142.005 220.006 134.374 216.845 128.747 211.218C123.12 205.591 119.959 197.959 119.959 190.001C119.959 188.921 120.179 187.881 120.279 186.821C105.831 193.531 94.1115 204.979 87.0631 219.265C80.0147 233.55 78.0611 249.816 81.5262 265.365C84.9912 280.913 93.6669 294.81 106.114 304.751C118.562 314.692 134.033 320.08 149.963 320.021Z" fill="white"/>
</svg>
