<svg width="400" height="401" viewBox="0 0 400 401" fill="none" xmlns="http://www.w3.org/2000/svg">
<path d="M149.966 400.035C190.032 400.035 227.718 384.433 256.242 355.888L394.343 213.946C397.084 211.127 398.933 207.562 399.659 203.698C400.385 199.834 399.956 195.841 398.426 192.219C396.895 188.597 394.332 185.507 391.055 183.334C387.778 181.161 383.933 180.002 380.001 180.001H313.971L397.484 29.6982C399.575 25.8992 400.377 21.5238 399.768 17.23C399.159 12.9363 397.172 8.95637 394.107 5.88873C391.041 2.82109 387.063 0.831587 382.77 0.219405C378.476 -0.392776 374.1 0.405456 370.3 2.49407L228.078 81.5062L239.6 23.9174C240.413 19.8421 239.936 15.6148 238.237 11.8227C236.537 8.03057 233.698 4.86196 230.115 2.75702C226.532 0.652072 222.383 -0.284696 218.243 0.0768379C214.103 0.438372 210.179 2.08026 207.015 4.77442L43.8697 143.936C-14.6193 202.425 -14.6193 297.599 43.8697 356.088C57.77 370.065 74.3045 381.145 92.5159 388.689C110.727 396.232 130.254 400.089 149.966 400.035ZM70.9938 173.3L189.052 72.6648L171.889 158.478L328.513 71.4646L262.503 190.283L262.483 190.303L246.001 220.007H332.634L227.758 327.804C206.975 348.587 179.35 360.029 149.966 360.029C120.581 360.029 92.9372 348.587 72.154 327.804C29.2874 284.917 29.2874 215.107 70.9938 173.3Z" fill="black"/>
<path d="M149.966 320.022C165.896 320.081 181.367 314.693 193.815 304.752C206.262 294.811 214.938 280.914 218.403 265.366C221.868 249.817 219.915 233.551 212.866 219.266C205.818 204.98 194.098 193.532 179.651 186.822C179.751 187.882 179.971 188.922 179.971 190.002C179.971 197.96 176.81 205.592 171.183 211.219C165.556 216.846 157.924 220.007 149.966 220.007C142.008 220.007 134.377 216.846 128.75 211.219C123.123 205.592 119.961 197.96 119.961 190.002C119.961 188.922 120.182 187.882 120.282 186.822C105.834 193.532 94.1144 204.98 87.066 219.266C80.0176 233.551 78.064 249.817 81.5291 265.366C84.9942 280.914 93.6698 294.811 106.117 304.752C118.565 314.693 134.036 320.081 149.966 320.022Z" fill="black"/>
</svg>
